<?xml version="1.0" encoding="utf-8"?>
<!-- Generator: Adobe Illustrator 27.9.0, SVG Export Plug-In . SVG Version: 6.00 Build 0)  -->
<svg version="1.1" id="Layer_1" xmlns="http://www.w3.org/2000/svg" xmlns:xlink="http://www.w3.org/1999/xlink" x="0px" y="0px"
	 viewBox="0 0 319.9 66.5" enable-background="new 0 0 319.9 66.5" xml:space="preserve">
<g>
	<path d="M21.1,16H0V0h61.2v16H40v50.5H21.1V16z"/>
	<path d="M66.9,0h18.2l17.2,24.2L119.4,0h18v66.5h-18.9V44.8c0-5.2,0.1-11.1,0.2-15.7h-0.2c-2.8,4.2-5.8,8.6-8.7,12.8l-7.9,11.2
		l-8-11.2c-3-4.2-6-8.5-8.7-12.8H85c0.1,4.6,0.2,10.5,0.2,15.7v21.7H66.9V0z"/>
	<path d="M147.9,0h18.9v29.4l0.2,0.1L186.4,0h22l-22.1,31.4l23.4,35.1h-22.7L167,34.4l-0.2,0.1v32h-18.9V0z"/>
	<path d="M213.7,0h18.9v50.5h27.7v16h-46.7V0z"/>
	<path d="M266.9,0h25.6c7,0,12.9,1.1,17.5,4.2c4.7,3.1,7.4,7.9,7.4,14c0,5.7-2.8,11-8.7,13.3v0.2c7.5,2.4,11.1,8.4,11.1,15.2
		c0,6.3-2.8,11.4-7.4,14.7c-4.7,3.3-11.1,4.9-18.6,4.9h-27V0z M291.9,26.6c4.6,0,7.2-2.1,7.2-6c0-1.9-0.7-3.4-2-4.3
		s-3.3-1.5-6.2-1.5h-5.1v11.8H291.9z M299.1,50.1c1.5-1.1,2.1-2.8,2.1-4.6c0-4-2.8-6.3-7.6-6.3h-8v12.5h6.6
		C295.6,51.6,297.6,51.2,299.1,50.1z"/>
</g>
</svg>
